HIERARCHY
ROOT Hips
{
  OFFSET 5.72205e-005 65.662 3.42586
  CHANNELS 6 Xposition Yposition Zposition Zrotation Xrotation Yrotation
  JOINT Chest
  {
    OFFSET 0 8.7983 -4.7612
    CHANNELS 3 Zrotation Xrotation Yrotation
    JOINT Chest2
    {
      OFFSET 0 8.0291 0.4195
      CHANNELS 3 Zrotation Xrotation Yrotation
      JOINT Chest3
      {
        OFFSET 0 9.9351 -2.2114
        CHANNELS 3 Zrotation Xrotation Yrotation
        JOINT Neck
        {
          OFFSET 0 22.3885 -0.4656
          CHANNELS 3 Zrotation Xrotation Yrotation
          JOINT Head
          {
            OFFSET -0.0001 12.643 3.4389
            CHANNELS 3 Zrotation Xrotation Yrotation
            End Site
            {
              OFFSET 0.0001 17.6655 0.5274
            }
          }
        }
        JOINT LeftCollar
        {
          OFFSET 2.2603 21.606 7.4023
          CHANNELS 3 Zrotation Xrotation Yrotation
          JOINT LeftShoulder
          {
            OFFSET 13.5163 -1.1332 -5.0146
            CHANNELS 3 Zrotation Xrotation Yrotation
            JOINT LeftElbow
            {
              OFFSET -0.0995 -28.05 -0.2431
              CHANNELS 3 Zrotation Xrotation Yrotation
              JOINT LeftWrist
              {
                OFFSET 0.0679 -23.3996 -0.1402
                CHANNELS 3 Zrotation Xrotation Yrotation
                JOINT LeftFinger1
                {
                  OFFSET 0.7932 -9.069 2.5189
                  CHANNELS 3 Zrotation Xrotation Yrotation
                  JOINT LeftFinger11
                  {
                    OFFSET -0.8272 -3.3923 0.5977
                    CHANNELS 3 Zrotation Xrotation Yrotation
                    JOINT LeftFinger12
                    {
                      OFFSET -0.5649 -2.3158 0.4082
                      CHANNELS 3 Zrotation Xrotation Yrotation
                      End Site
                      {
                        OFFSET -0.4919 -1.6479 0.2673
                      }
                    }
                  }
                }
                JOINT LeftFinger2
                {
                  OFFSET 0.9159 -9.2044 0.2193
                  CHANNELS 3 Zrotation Xrotation Yrotation
                  JOINT LeftFinger21
                  {
                    OFFSET 0.0117 -4.1944 -0.0248
                    CHANNELS 3 Zrotation Xrotation Yrotation
                    JOINT LeftFinger22
                    {
                      OFFSET 0.0071 -2.3249 -0.0142
                      CHANNELS 3 Zrotation Xrotation Yrotation
                      End Site
                      {
                        OFFSET -0.1475 -2.0882 0.0028
                      }
                    }
                  }
                }
                JOINT LeftFinger3
                {
                  OFFSET 0.6113 -8.7231 -2.0637
                  CHANNELS 3 Zrotation Xrotation Yrotation
                  JOINT LeftFinger31
                  {
                    OFFSET -0.1927 -3.8059 -0.2383
                    CHANNELS 3 Zrotation Xrotation Yrotation
                    JOINT LeftFinger32
                    {
                      OFFSET -0.1091 -2.1688 -0.1362
                      CHANNELS 3 Zrotation Xrotation Yrotation
                      End Site
                      {
                        OFFSET -0.2358 -1.9176 -0.0906
                      }
                    }
                  }
                }
                JOINT LeftFinger4
                {
                  OFFSET -0.6151 -8.0947 -3.5641
                  CHANNELS 3 Zrotation Xrotation Yrotation
                  JOINT LeftFinger41
                  {
                    OFFSET -0.4882 -2.341 -0.6462
                    CHANNELS 3 Zrotation Xrotation Yrotation
                    JOINT LeftFinger42
                    {
                      OFFSET -0.3575 -1.7167 -0.4742
                      CHANNELS 3 Zrotation Xrotation Yrotation
                      End Site
                      {
                        OFFSET -0.4187 -1.5237 -0.3496
                      }
                    }
                  }
                }
                JOINT LeftFinger0
                {
                  OFFSET -1.42 -1.8761 1.4223
                  CHANNELS 3 Zrotation Xrotation Yrotation
                  JOINT LeftFinger01
                  {
                    OFFSET -1.1471 -3.4929 2.6334
                    CHANNELS 3 Zrotation Xrotation Yrotation
                    JOINT LeftFinger02
                    {
                      OFFSET -0.823 -2.3 1.6571
                      CHANNELS 3 Zrotation Xrotation Yrotation
                      End Site
                      {
                        OFFSET -0.5822 -1.6914 1.1582
                      }
                    }
                  }
                }
              }
            }
          }
        }
        JOINT RightCollar
        {
          OFFSET -2.2603 21.606 7.4023
          CHANNELS 3 Zrotation Xrotation Yrotation
          JOINT RightShoulder
          {
            OFFSET -13.5187 -1.1334 -5.0155
            CHANNELS 3 Zrotation Xrotation Yrotation
            JOINT RightElbow
            {
              OFFSET 0.0994 -28.0499 -0.2431
              CHANNELS 3 Zrotation Xrotation Yrotation
              JOINT RightWrist
              {
                OFFSET -0.0679 -23.3996 -0.1402
                CHANNELS 3 Zrotation Xrotation Yrotation
                JOINT RightFinger1
                {
                  OFFSET -0.7932 -9.0691 2.5189
                  CHANNELS 3 Zrotation Xrotation Yrotation
                  JOINT RightFinger11
                  {
                    OFFSET 0.8272 -3.3923 0.5977
                    CHANNELS 3 Zrotation Xrotation Yrotation
                    JOINT RightFinger12
                    {
                      OFFSET 0.565 -2.3158 0.4082
                      CHANNELS 3 Zrotation Xrotation Yrotation
                      End Site
                      {
                        OFFSET 0.4919 -1.6479 0.2673
                      }
                    }
                  }
                }
                JOINT RightFinger2
                {
                  OFFSET -0.916 -9.2044 0.2193
                  CHANNELS 3 Zrotation Xrotation Yrotation
                  JOINT RightFinger21
                  {
                    OFFSET -0.0117 -4.1944 -0.0248
                    CHANNELS 3 Zrotation Xrotation Yrotation
                    JOINT RightFinger22
                    {
                      OFFSET -0.0071 -2.3249 -0.0142
                      CHANNELS 3 Zrotation Xrotation Yrotation
                      End Site
                      {
                        OFFSET 0.1475 -2.0882 0.0028
                      }
                    }
                  }
                }
                JOINT RightFinger3
                {
                  OFFSET -0.6113 -8.7231 -2.0637
                  CHANNELS 3 Zrotation Xrotation Yrotation
                  JOINT RightFinger31
                  {
                    OFFSET 0.1927 -3.8059 -0.2383
                    CHANNELS 3 Zrotation Xrotation Yrotation
                    JOINT RightFinger32
                    {
                      OFFSET 0.1091 -2.1688 -0.1362
                      CHANNELS 3 Zrotation Xrotation Yrotation
                      End Site
                      {
                        OFFSET 0.2358 -1.9176 -0.0906
                      }
                    }
                  }
                }
                JOINT RightFinger4
                {
                  OFFSET 0.6151 -8.0947 -3.564
                  CHANNELS 3 Zrotation Xrotation Yrotation
                  JOINT RightFinger41
                  {
                    OFFSET 0.4882 -2.341 -0.6462
                    CHANNELS 3 Zrotation Xrotation Yrotation
                    JOINT RightFinger42
                    {
                      OFFSET 0.3574 -1.7166 -0.4742
                      CHANNELS 3 Zrotation Xrotation Yrotation
                      End Site
                      {
                        OFFSET 0.4187 -1.5237 -0.3496
                      }
                    }
                  }
                }
                JOINT RightFinger0
                {
                  OFFSET 1.4199 -1.8761 1.4221
                  CHANNELS 3 Zrotation Xrotation Yrotation
                  JOINT RightFinger01
                  {
                    OFFSET 1.1472 -3.4929 2.6336
                    CHANNELS 3 Zrotation Xrotation Yrotation
                    JOINT RightFinger02
                    {
                      OFFSET 0.8229 -2.3 1.6571
                      CHANNELS 3 Zrotation Xrotation Yrotation
                      End Site
                      {
                        OFFSET 0.5822 -1.6914 1.1582
                      }
                    }
                  }
                }
              }
            }
          }
        }
      }
    }
  }
  JOINT RightHip
  {
    OFFSET -9.412 3.9771 -0.7758
    CHANNELS 3 Zrotation Xrotation Yrotation
    JOINT RightKnee
    {
      OFFSET -0.7531 -40.938 0
      CHANNELS 3 Zrotation Xrotation Yrotation
      JOINT RightAnkle
      {
        OFFSET 0 -40.1986 0
        CHANNELS 3 Zrotation Xrotation Yrotation
        JOINT RightToe
        {
          OFFSET 0 -4.4182 9.239
          CHANNELS 3 Zrotation Xrotation Yrotation
          End Site
          {
            OFFSET 0 0 6.1981
          }
        }
      }
    }
  }
  JOINT LeftHip
  {
    OFFSET 9.4119 3.9773 -0.7758
    CHANNELS 3 Zrotation Xrotation Yrotation
    JOINT LeftKnee
    {
      OFFSET 0.7532 -40.9383 0
      CHANNELS 3 Zrotation Xrotation Yrotation
      JOINT LeftAnkle
      {
        OFFSET 0 -40.1986 0
        CHANNELS 3 Zrotation Xrotation Yrotation
        JOINT LeftToe
        {
          OFFSET 0 -4.4182 9.239
          CHANNELS 3 Zrotation Xrotation Yrotation
          End Site
          {
            OFFSET 0 0 6.1981
          }
        }
      }
    }
  }
}
MOTION
Frames:	6
Frame Time:	0.0333333
5.72205e-005 65.662 3.42586 0 0 -0 0 0 -0 0 0 -0 0 0 -0 0 0 -0 0 0 -0 0 0 -12.5014 88.1196 14.2451 10.6914 -0.00160068 -0.00239207 0.000740045 -8.4365e-005 7.00714e-005 -9.52055e-007 9.93923e-017 -1.98785e-016 -1.59028e-015 9.93923e-017 -5.96354e-016 -1.59028e-015 -9.93923e-017 -5.96354e-016 -1.59028e-015 9.93923e-017 -1.98785e-016 -1.59028e-015 -0.0128176 0.00232552 8.52707e-005 9.93923e-017 5.96354e-016 -0 9.93923e-017 -1.98785e-016 -1.59028e-015 -0.0160551 0.00299681 0.000857156 -2.48481e-016 0 3.18055e-015 9.93923e-017 -1.98785e-016 -1.59028e-015 -0.0125865 0.0031206 0.00282719 0 1.98785e-016 -0 9.93923e-017 -1.98785e-016 -1.59028e-015 9.93923e-017 -5.96354e-016 -1.59028e-015 -9.93923e-017 -5.96354e-016 -1.59028e-015 -0.865644 0.16582 7.03859 -88.0329 10.2057 -10.5567 0.0015593 -0.00248883 -0.000788628 7.87605e-005 4.10553e-005 1.24965e-005 -3.97569e-016 -7.95139e-016 3.18055e-015 -1.98785e-016 -3.97569e-016 3.18055e-015 -1.98785e-016 0 3.18055e-015 -3.97569e-016 -7.95139e-016 3.18055e-015 0.0129473 0.00231697 -8.70038e-005 9.93923e-017 -7.95139e-016 1.59028e-015 -3.97569e-016 -7.95139e-016 3.18055e-015 0.0163314 0.00303369 -0.000872333 3.97569e-016 7.95139e-016 -3.18055e-015 -3.97569e-016 -7.95139e-016 3.18055e-015 0.0145763 0.00367772 -0.00326275 9.93923e-017 -3.97569e-016 -0 -3.97569e-016 -7.95139e-016 3.18055e-015 -1.98785e-016 -3.97569e-016 3.18055e-015 -1.98785e-016 0 3.18055e-015 3.42482 1.32465 -0.0626183 0.000117508 0.717283 0.000978199 -3.4257 -2.04197 -0.0604716 6.47761e-025 0 -0 -3.42483 1.34017 0.0627307 -0.000193936 0.682302 -0.0013703 3.42574 -2.02253 0.0595886 -8.45714e-024 0 -7.40531e-025 
-0.168076 63.3411 4.55272 -1.34866e-010 0.0223189 3.11631e-008 -0.157025 3.33203 -0.0631462 -0.311156 6.66421 -0.117426 -0.311157 6.66422 -0.117426 -4.47526e-006 -0.200146 -1.85528e-006 -3.87979e-007 -0.150482 -1.41244e-007 -4.51638 -0.2068 -14.8324 45.6904 -4.7674 -5.43486 -4.58916 -16.4258 13.0287 -3.87197 0.706397 -0.0964556 7.95139e-016 0 -1.59028e-015 -1.98785e-015 3.15451e-008 -0 -2.78299e-015 1.6493e-006 -3.18055e-015 7.95139e-016 0 -1.59028e-015 -0.0128376 0.00232919 8.86133e-005 -7.8543e-007 8.3522e-007 -3.19879e-006 7.95139e-016 0 -1.59028e-015 -0.0160692 0.00299941 0.000861947 3.09168e-006 1.27399e-006 -3.62967e-007 7.95139e-016 0 -1.59028e-015 -0.0125203 0.00310724 0.00281035 1.19271e-015 -1.59028e-015 -0 7.95139e-016 0 -1.59028e-015 -1.98785e-015 3.15451e-008 -0 -2.78299e-015 1.6493e-006 -3.18055e-015 3.6439 -0.0762128 9.36442 -45.6337 -7.75923 9.0261 4.87254 -16.2343 -13.1252 3.86702 0.699524 0.194582 1.65743e-006 -3.96749e-006 2.14051e-006 -2.0175e-006 7.41298e-006 -3.75175e-006 3.60071e-007 -1.77093e-006 1.61124e-006 1.65743e-006 -3.96749e-006 2.14051e-006 0.0129468 0.00232238 -9.039e-005 -8.16263e-006 5.80046e-007 -3.02383e-007 1.65743e-006 -3.96749e-006 2.14051e-006 0.0163601 0.00304572 -0.00087843 5.04391e-007 -4.81311e-007 3.88154e-006 1.65743e-006 -3.96749e-006 2.14051e-006 0.0145796 0.00368769 -0.00326939 -8.24017e-006 -2.19961e-006 6.27182e-006 1.65743e-006 -3.96749e-006 2.14051e-006 -2.0175e-006 7.41298e-006 -3.75175e-006 3.60071e-007 -1.77093e-006 1.61124e-006 1.60767 -3.1557 -6.76993 1.7139 15.0051 -0.721939 5.06274 -13.1769 -1.17977 2.53301e-006 -2.08134e-007 -3.38492e-008 5.51572 -7.82113 8.50009 1.81311 16.1074 -1.77222 -5.47931 -13.19 1.02765 -1.59345e-007 2.43113e-008 1.53251e-008 
-0.281792 61.5099 5.45157 6.83831e-008 1.68288e-017 2.83654e-008 -0.26431 5.89808 -0.135634 -0.518654 11.7967 -0.245713 -0.518656 11.7968 -0.245713 -1.2355e-006 -0.400398 -3.14456e-007 1.85999e-007 -0.267537 6.76037e-008 -8.08373 -0.251601 -16.6587 15.8536 -23.02 -19.7744 -8.62519 -29.1754 22.2485 -6.88307 1.25936 -0.138058 -8.57493e-006 -2.52206e-007 -1.58591e-006 8.57493e-006 2.52206e-007 1.58591e-006 -8.57493e-006 -2.52206e-007 -1.58591e-006 -8.57493e-006 -2.52206e-007 -1.58591e-006 -0.0128407 0.00232463 8.84491e-005 3.64209e-006 5.80095e-006 1.11984e-007 -8.57493e-006 -2.52206e-007 -1.58591e-006 -0.016054 0.00298996 0.000862603 -2.65982e-007 6.44057e-006 3.88374e-006 -8.57493e-006 -2.52206e-007 -1.58591e-006 -0.012601 0.00312727 0.00283454 -3.52471e-006 1.93967e-006 -2.04163e-006 -8.57493e-006 -2.52206e-007 -1.58591e-006 8.57493e-006 2.52206e-007 1.58591e-006 -8.57493e-006 -2.52206e-007 -1.58591e-006 7.20483 -0.149266 11.1881 -14.3112 -23.9464 24.9254 9.16533 -28.888 -22.2851 6.8733 1.25167 0.31278 -2.63992e-006 6.26782e-006 -2.30471e-007 -3.97569e-015 -6.36111e-015 6.36111e-015 -1.15295e-014 -1.59028e-015 3.18055e-015 -2.63992e-006 6.26782e-006 -2.30471e-007 0.0129741 0.00231479 -8.73596e-005 -6.36111e-015 1.59028e-015 3.18055e-015 -2.63992e-006 6.26782e-006 -2.30471e-007 0.0163199 0.00302565 -0.00087311 5.91584e-006 1.48214e-006 -2.08658e-006 -2.63992e-006 6.26782e-006 -2.30471e-007 0.0146166 0.00367683 -0.00326895 3.36445e-007 2.5635e-006 1.5984e-006 -2.63992e-006 6.26782e-006 -2.30471e-007 -3.97569e-015 -6.36111e-015 6.36111e-015 -1.15295e-014 -1.59028e-015 3.18055e-015 -0.675894 -6.54931 -12.082 3.60709 26.0062 -1.50816 11.2936 -21.7527 -2.14806 2.78299e-015 3.89499e-010 6.36111e-015 14.0867 -14.3615 15.3651 4.0977 27.3369 -3.49689 -12.2551 -21.5423 1.90004 -2.09176e-007 1.80764e-006 4.23868e-008 
-0.297024 61.2589 5.67067 1.77535e-007 -0.156232 -1.79774e-008 -0.278398 6.16762 -0.147527 -0.5455 12.3359 -0.267047 -0.545502 12.3359 -0.267048 -9.76917e-007 -0.600416 -3.41918e-007 1.02014e-007 -0.284249 -4.83543e-008 -8.75671 0.187351 -16.9711 11.8611 -25.6994 -21.8832 -9.19069 -30.9304 23.5199 -7.31326 1.33847 -0.141532 7.95139e-016 0 3.18055e-015 -1.35174e-014 -3.18055e-015 6.36111e-015 -1.27222e-014 -3.18055e-015 -0 7.95139e-016 0 3.18055e-015 -0.0127905 0.0023243 8.60781e-005 -9.87215e-023 1.77841e-006 3.18055e-015 7.95139e-016 0 3.18055e-015 -0.0159991 0.00299339 0.000856913 7.95139e-016 1.59028e-015 -3.18055e-015 7.95139e-016 0 3.18055e-015 -0.0126491 0.00314708 0.00284574 7.95139e-016 4.77083e-015 -0 7.95139e-016 0 3.18055e-015 -1.35174e-014 -3.18055e-015 6.36111e-015 -1.27222e-014 -3.18055e-015 -0 7.86897 0.282928 11.5058 -10.0498 -26.3015 27.1858 9.77307 -30.6338 -23.5378 7.30274 1.33102 0.327155 -2.38542e-015 -1.59028e-015 -0 -2.38542e-015 -1.76601e-006 -0 -2.38542e-015 3.18055e-015 -0 -2.38542e-015 -1.59028e-015 -0 0.01294 0.00231099 -8.24311e-005 7.55382e-015 1.59028e-015 -6.36111e-015 -2.38542e-015 -1.59028e-015 -0 0.0163299 0.00303506 -0.000874174 -7.95139e-015 -3.18055e-015 6.36111e-015 -2.38542e-015 -1.59028e-015 -0 0.0145564 0.00366577 -0.00325409 -1.47101e-014 0 -0 -2.38542e-015 -1.59028e-015 -0 -2.38542e-015 -1.76601e-006 -0 -2.38542e-015 3.18055e-015 -0 -1.06922 -6.75752 -12.8351 3.96133 27.5371 -1.66268 12.1383 -22.9566 -2.30255 -1.62986e-006 5.2972e-007 4.83702e-006 15.4014 -15.0333 16.376 4.54317 28.8748 -3.79908 -13.2295 -22.7073 2.04195 -2.08453e-007 -8.11028e-007 4.57974e-008 
-0.281621 61.5324 5.66308 -4.27606e-007 -0.357094 -7.95081e-008 -0.264233 5.67162 -0.135586 -0.518744 11.3438 -0.246562 -0.518746 11.3438 -0.246563 1.74654e-007 -0.800419 8.85748e-008 -3.25905e-007 -0.267531 -2.19729e-007 -8.4682 0.788032 -16.7781 16.2222 -22.8859 -19.6036 -8.4504 -29.0306 22.3411 -6.88305 1.25938 -0.138071 -1.59028e-015 6.36111e-015 6.36111e-015 -9.59337e-008 -3.63233e-008 -5.05246e-006 -3.62306e-007 -5.87297e-008 -1.58379e-006 -1.59028e-015 6.36111e-015 6.36111e-015 -0.0128079 0.00233507 8.21903e-005 2.38542e-015 1.67082e-006 -3.18055e-015 -1.59028e-015 6.36111e-015 6.36111e-015 -0.0160688 0.00300494 0.00086078 -3.62076e-007 2.57318e-006 -1.58381e-006 -1.59028e-015 6.36111e-015 6.36111e-015 -0.0126396 0.00314344 0.00284109 1.04737e-006 2.19439e-006 -2.16194e-006 -1.59028e-015 6.36111e-015 6.36111e-015 -9.59337e-008 -3.63233e-008 -5.05246e-006 -3.62306e-007 -5.87297e-008 -1.58379e-006 7.57055 0.884043 11.3207 -14.6882 -23.8421 24.7466 8.99178 -28.7462 -22.3807 6.8733 1.25169 0.312771 -1.7307e-006 2.31602e-006 -2.85653e-006 4.42336e-006 1.48744e-007 1.32607e-006 1.98785e-015 1.59028e-015 3.18055e-015 -1.7307e-006 2.31602e-006 -2.85653e-006 0.0129563 0.002317 -8.47882e-005 1.47793e-006 -6.41826e-007 -5.32769e-007 -1.7307e-006 2.31602e-006 -2.85653e-006 0.0163384 0.00303287 -0.000866179 1.98785e-015 -7.95139e-015 6.36111e-015 -1.7307e-006 2.31602e-006 -2.85653e-006 0.0145681 0.00367896 -0.0032593 -9.54166e-015 1.59028e-015 9.54166e-015 -1.7307e-006 2.31602e-006 -2.85653e-006 4.42336e-006 1.48744e-007 1.32607e-006 1.98785e-015 1.59028e-015 3.18055e-015 -0.665981 -5.97959 -12.0534 3.60694 26.0206 -1.50901 11.2936 -21.7577 -2.14716 -3.14424e-006 2.78119e-007 4.52559e-006 14.0879 -13.8637 15.3534 4.09808 27.3405 -3.49699 -12.2542 -21.5412 1.90049 3.13395e-007 -9.70803e-007 -1.72821e-006 
-0.281543 61.5437 5.76879 -4.84757e-008 -0.535668 -5.62852e-009 -0.264174 5.55798 -0.135556 -0.518752 11.1165 -0.246979 -0.518754 11.1166 -0.246979 -2.50501e-006 -1.00038 -1.39211e-006 -4.4359e-007 -0.267528 -1.80046e-007 -8.65984 1.30868 -16.8352 16.4073 -22.8185 -19.5182 -8.36407 -28.9584 22.3871 -6.88309 1.25937 -0.13808 -3.67393e-007 2.35819e-006 -1.58166e-006 -3.97569e-015 3.18055e-015 3.18055e-015 -6.36111e-015 -1.59028e-015 -0 -3.67393e-007 2.35819e-006 -1.58166e-006 -0.0128342 0.00232266 8.50824e-005 -7.95139e-015 1.59028e-015 -9.54166e-015 -3.67393e-007 2.35819e-006 -1.58166e-006 -0.0160307 0.0029885 0.000856179 -3.67163e-007 2.57135e-006 -1.58169e-006 -3.67393e-007 2.35819e-006 -1.58166e-006 -0.0126339 0.00313298 0.00283379 5.36015e-006 3.34634e-006 1.16787e-006 -3.67393e-007 2.35819e-006 -1.58166e-006 -3.97569e-015 3.18055e-015 3.18055e-015 -6.36111e-015 -1.59028e-015 -0 7.75271 1.40152 11.3846 -14.8763 -23.7896 24.6576 8.90501 -28.6751 -22.4282 6.8733 1.25167 0.312771 -1.59028e-015 0 -6.36111e-015 3.97569e-016 1.59028e-015 -6.36111e-015 3.18055e-015 -6.36111e-015 -6.36111e-015 -1.59028e-015 0 -6.36111e-015 0.0129394 0.00231753 -8.46864e-005 1.47736e-006 1.13726e-006 -5.38348e-007 -1.59028e-015 0 -6.36111e-015 0.0163204 0.00302997 -0.000874174 3.05863e-006 6.9645e-006 -2.89198e-006 -1.59028e-015 0 -6.36111e-015 0.0145637 0.00368085 -0.00326039 -7.95139e-015 -4.77083e-015 -0 -1.59028e-015 0 -6.36111e-015 3.97569e-016 1.59028e-015 -6.36111e-015 3.18055e-015 -6.36111e-015 -6.36111e-015 -0.661267 -5.69012 -12.0392 3.60777 26.0235 -1.50902 11.2937 -21.7603 -2.14669 3.77691e-015 7.95139e-016 6.36111e-015 14.0886 -13.6146 15.3476 4.09815 27.3423 -3.49709 -12.2538 -21.5408 1.90071 3.97569e-016 -3.18055e-015 -3.18055e-015 
